<?xml version="1.0" encoding="utf-8"?>
<!-- Generator: Adobe Illustrator 25.2.1, SVG Export Plug-In . SVG Version: 6.00 Build 0)  -->
<svg version="1.1" id="Layer_1" xmlns="http://www.w3.org/2000/svg" xmlns:xlink="http://www.w3.org/1999/xlink" x="0px" y="0px"
	 viewBox="0 0 512 512" style="enable-background:new 0 0 512 512;" xml:space="preserve">
<style type="text/css">
	.st0{fill:#00FFBC;}
</style>
<g>
	<polygon class="st0" points="319.3,306.1 399.8,306.1 399.8,286.1 339.4,286.1 339.4,266.2 394.8,266.2 394.8,246.1 339.4,246.1 
		339.4,225.9 399.8,225.9 399.8,205.9 319.3,205.9 	"/>
	<polygon class="st0" points="178.8,234.8 156.9,250.4 135.5,234.8 135.5,205.9 115.4,205.9 115.4,243.3 147.2,268.3 147.2,306.1 
		167.1,306.1 167.1,268.3 198.7,243.3 198.7,205.9 178.8,205.9 	"/>
	<polygon class="st0" points="238.8,205.9 218.7,205.9 218.7,306.1 299.3,306.1 299.3,286.1 238.8,286.1 	"/>
	<polygon class="st0" points="512,216 502.1,205.9 461.5,205.9 461.5,225.9 492.1,225.9 492.1,256.1 463.4,256.1 463.4,256.1 
		456.7,247.8 456.7,225.9 456.7,214.1 456.7,205.9 420,205.9 420,205.9 420,222.6 420,225.9 436.7,225.9 436.7,247.8 444.9,256.1 
		436.7,264.5 436.7,286.1 420,286.1 420,289.7 420,289.7 420,306.1 448.1,306.1 448.1,306.1 448.2,306.1 448.2,306.1 456.7,297.9 
		456.7,276.2 478.7,276.2 492.4,293.2 492.6,306.1 512,306.1 512,286.1 503.8,276.2 512,266.2 	"/>
	<polygon class="st0" points="32.8,205.9 9.9,205.9 0,216 0,225.9 32.8,225.9 	"/>
	<polygon class="st0" points="37.6,214.1 37.6,214.1 37.6,247.5 29.3,255.9 37.6,264.2 37.6,297.9 46,306.1 74.3,306.1 74.3,306.1 
		74.3,306.1 74.3,286.1 57.6,286.1 57.6,264.2 49.4,255.9 57.6,247.5 57.6,225.9 93.1,225.9 93.1,205.9 37.6,205.9 	"/>
</g>
</svg>
