<?xml version="1.0" encoding="UTF-8" standalone="no"?>
<!DOCTYPE svg PUBLIC "-//W3C//DTD SVG 1.1//EN" "http://www.w3.org/Graphics/SVG/1.1/DTD/svg11.dtd">
<svg version="1.1" xmlns="http://www.w3.org/2000/svg" xmlns:xlink="http://www.w3.org/1999/xlink" preserveAspectRatio="xMidYMid meet" viewBox="0 0 638.4 124.8" width="638.4" height="124.8"><defs><path d="M499.75 125.25L499.75 100.25L424.25 100.25L424.25 75.38L493.5 75.38L493.5 50.25L424.25 50.25L424.25 25L499.75 25L499.75 0L399.13 0L399.13 125.25L499.75 125.25Z" id="a8yY3p9xY"></path><path d="M196.13 55.63L169.38 36.13L169.38 0L144.25 0L144.25 46.75L184 78L184 125.25L208.88 125.25L208.88 78L248.38 46.75L248.38 0L223.5 0L223.5 36.13L196.13 55.63Z" id="c3ohjCqee"></path><path d="M273.38 0L273.38 125.25L374.13 125.25L374.13 100.25L298.5 100.25L298.5 0L273.38 0Z" id="n1mnwyr2ys"></path><path d="M627.63 0L576.88 0L576.88 25L615.13 25L615.13 62.75L579.25 62.75L579.25 62.75L570.88 52.38L570.88 25L570.88 10.25L570.88 0L525 0L525 0L525 20.88L525 25L545.88 25L545.88 52.38L556.13 62.75L545.88 73.25L545.88 100.25L525 100.25L525 104.75L525 104.75L525 125.25L560.13 125.25L560.13 125.25L560.25 125.25L560.25 125.25L570.88 115L570.88 87.88L598.38 87.88L615.5 109.13L615.75 125.25L640 125.25L640 100.25L629.75 87.88L640 75.38L640 12.63L627.63 0Z" id="b1Xk7W5HX"></path><path d="M12.38 0L0 12.63L0 25L41 25L41 0L12.38 0Z" id="a4SoQLjBdT"></path><path d="M47 10.25L47 52L36.63 62.5L47 72.88L47 115L57.5 125.25L92.88 125.25L92.88 125.25L92.88 125.25L92.88 100.25L72 100.25L72 72.88L61.75 62.5L72 52L72 25L116.38 25L116.38 0L47 0L47 10.25L47 10.25Z" id="a2D1TKFAwK"></path></defs><g><g><g><use xlink:href="#a8yY3p9xY" opacity="1" fill="#7afecf" fill-opacity="1"></use><g><use xlink:href="#a8yY3p9xY" opacity="1" fill-opacity="0" stroke="#000000" stroke-width="1" stroke-opacity="0"></use></g></g><g><use xlink:href="#c3ohjCqee" opacity="1" fill="#7afecf" fill-opacity="1"></use><g><use xlink:href="#c3ohjCqee" opacity="1" fill-opacity="0" stroke="#000000" stroke-width="1" stroke-opacity="0"></use></g></g><g><use xlink:href="#n1mnwyr2ys" opacity="1" fill="#7afecf" fill-opacity="1"></use><g><use xlink:href="#n1mnwyr2ys" opacity="1" fill-opacity="0" stroke="#000000" stroke-width="1" stroke-opacity="0"></use></g></g><g><use xlink:href="#b1Xk7W5HX" opacity="1" fill="#7afecf" fill-opacity="1"></use><g><use xlink:href="#b1Xk7W5HX" opacity="1" fill-opacity="0" stroke="#000000" stroke-width="1" stroke-opacity="0"></use></g></g><g><use xlink:href="#a4SoQLjBdT" opacity="1" fill="#7afecf" fill-opacity="1"></use><g><use xlink:href="#a4SoQLjBdT" opacity="1" fill-opacity="0" stroke="#000000" stroke-width="1" stroke-opacity="0"></use></g></g><g><use xlink:href="#a2D1TKFAwK" opacity="1" fill="#7afecf" fill-opacity="1"></use><g><use xlink:href="#a2D1TKFAwK" opacity="1" fill-opacity="0" stroke="#000000" stroke-width="1" stroke-opacity="0"></use></g></g></g></g></svg>